<svg version="1.1" id="Layer_1" xmlns="http://www.w3.org/2000/svg" xmlns:xlink="http://www.w3.org/1999/xlink" x="0px" y="0px"
	 width="100%" viewBox="0 0 976 752" enable-background="new 0 0 976 752" xml:space="preserve">
<path fill="#000000" opacity="1.000000" stroke="none" 
	d="
M635.182129,564.114624 
	C619.739685,586.966064 599.907593,604.410889 575.862061,617.029480 
	C571.816223,619.152710 569.992249,621.556946 570.224060,626.298340 
	C570.630432,634.610474 570.111389,642.964355 570.384460,651.287476 
	C570.667419,659.912415 567.578308,666.861084 561.198853,672.496521 
	C560.706604,672.931458 560.265503,673.427063 559.830261,673.920654 
	C559.758789,674.001709 559.841736,674.219116 559.863525,674.509766 
	C562.398254,675.356934 565.059875,674.932434 567.664673,674.933350 
	C663.319031,674.968140 758.973389,674.967163 854.627747,675.002380 
	C857.092285,675.003296 859.875061,674.303223 862.785278,678.025391 
	C614.819946,678.025391 368.086914,678.025391 120.256531,678.025391 
	C122.764023,674.418030 125.369949,674.985779 127.664787,674.982605 
	C151.994934,674.949036 176.325150,674.971191 200.655350,674.971069 
	C257.481354,674.970703 314.307343,674.966431 371.133331,674.963806 
	C372.781097,674.963745 374.428833,674.963806 376.177368,674.963806 
	C376.087158,672.742371 374.377747,672.306885 373.367065,671.372559 
	C367.708130,666.141113 364.460358,659.952820 364.591309,652.021423 
	C364.767334,641.359192 364.528625,630.690491 364.667114,620.027161 
	C364.711151,616.635193 363.500763,614.654541 360.551025,612.832581 
	C317.450684,586.210693 291.122314,548.090027 282.603943,498.006226 
	C278.876465,476.090698 279.879578,454.281616 285.179993,432.680634 
	C285.533081,431.241669 285.811035,429.784271 286.159607,428.170135 
	C283.033203,426.119019 279.430267,426.206757 276.147400,425.302032 
	C253.212570,418.981628 234.027267,407.006165 220.234055,387.395447 
	C212.678696,376.653473 211.262177,364.953857 217.886566,353.050934 
	C225.226730,339.861877 242.335480,334.440704 256.028290,340.805115 
	C260.749023,342.999298 264.301392,346.344391 266.348877,351.184052 
	C268.468567,356.194305 267.345917,362.185883 263.589844,366.012085 
	C258.637085,371.057465 246.151657,373.690857 239.701950,370.924683 
	C235.633194,369.179596 233.451813,366.093933 233.715973,361.508209 
	C233.865585,358.910980 235.214981,357.087372 237.472061,356.035248 
	C239.889557,354.908295 242.351486,354.934662 244.513657,356.727692 
	C245.580414,357.612335 246.301865,358.755157 245.729492,360.239594 
	C244.623642,363.107574 241.894470,361.189972 240.156082,361.964569 
	C239.250214,363.822998 240.484848,364.548584 241.668335,365.147705 
	C243.676331,366.164246 245.859344,366.053833 248.034637,365.898163 
	C256.055603,365.324158 261.432343,361.638031 261.587769,356.587799 
	C261.742035,351.575928 254.779236,345.150909 248.136505,344.370728 
	C238.082077,343.189819 229.546738,346.053375 223.785278,354.720856 
	C218.082214,363.300507 218.180420,372.371429 223.326828,381.124908 
	C230.975311,394.134155 242.373108,403.259552 255.331024,410.543427 
	C264.541229,415.720612 274.376831,419.252167 284.817841,421.086823 
	C286.662323,421.410919 288.106232,421.585541 288.873230,419.505371 
	C293.369507,407.311005 299.014771,395.652496 305.953369,384.121582 
	C298.429962,380.467590 297.450592,373.174438 295.038910,366.732758 
	C285.058014,340.073975 275.152863,313.386627 265.112152,286.750397 
	C254.032578,257.358276 265.591919,231.920319 295.093933,221.031143 
	C301.177368,218.785706 307.254761,216.523926 313.450195,214.226944 
	C314.498016,220.300674 319.026520,223.931839 322.068970,228.468307 
	C324.200714,231.646927 326.605988,234.643356 328.914642,237.701843 
	C332.989227,243.099884 336.912598,244.462769 344.440582,242.870834 
	C342.224823,234.645630 336.557007,227.989761 333.829285,220.086533 
	C336.339935,217.613434 339.431915,217.305496 342.201599,216.371094 
	C355.764282,211.795517 369.372986,207.356354 382.935211,202.779434 
	C385.906097,201.776840 388.754150,201.268646 391.580414,202.983154 
	C394.292267,204.628281 396.760284,203.009872 399.279541,202.446091 
	C406.531769,200.823196 411.922638,197.417374 416.736450,190.962830 
	C434.451660,167.209579 458.970886,158.191360 487.691315,164.128738 
	C516.115051,170.004776 534.393982,188.167175 541.660156,216.382828 
	C552.087158,256.872437 523.452942,298.645874 482.143188,303.135101 
	C460.015320,305.539795 440.205505,299.496246 423.966156,283.695801 
	C421.491394,281.287903 419.556519,280.631317 415.798676,281.283844 
	C410.371124,282.226288 404.559784,281.287659 398.950928,280.748932 
	C394.745422,280.344940 390.800018,279.381714 388.184845,284.218170 
	C386.993256,286.421875 384.256622,286.373199 381.855347,286.349579 
	C376.596283,286.297882 371.336395,286.333557 366.019196,286.333557 
	C367.065704,288.401672 367.946960,290.366333 370.629547,291.582886 
	C373.527283,292.897003 374.311523,296.513336 375.665710,299.302460 
	C377.080597,302.216583 378.806976,302.933044 382.046600,302.023468 
	C394.218842,298.605927 406.470764,295.468628 418.715668,292.314972 
	C425.609436,290.539429 428.545074,292.336029 430.533905,299.146179 
	C433.584930,309.593658 431.281708,308.760956 443.095215,308.597961 
	C469.093170,308.239197 494.993835,310.155334 520.896362,311.899353 
	C528.332092,312.399963 535.755127,313.524170 543.090637,314.870911 
	C546.180725,315.438232 548.035706,314.637573 550.099365,312.581360 
	C560.958618,301.761444 571.934814,291.058960 582.864075,280.309204 
	C590.211121,273.082794 592.319519,273.456970 595.893860,282.704712 
	C597.729980,282.441559 598.516113,280.805908 599.686584,279.717743 
	C601.694031,277.851532 603.650452,276.011963 606.707886,277.320038 
	C609.599426,278.557098 609.514221,281.081635 609.527771,283.651703 
	C609.634644,303.976227 609.893311,324.300903 609.833496,344.624695 
	C609.820312,349.113220 611.018494,352.370361 614.327087,355.576355 
	C636.278748,376.847015 650.832275,402.456848 658.346619,432.080811 
	C658.998413,434.650299 659.803040,437.181030 660.698975,440.293732 
	C662.296143,429.152283 663.918152,418.539673 665.285095,407.894287 
	C665.722473,404.487823 667.181274,403.318359 670.523865,403.750061 
	C674.173035,404.221313 673.560425,406.854095 673.275269,409.027588 
	C671.201416,424.831604 668.935120,440.610474 666.878052,456.416595 
	C666.239258,461.324982 664.901855,466.193024 665.445129,471.679199 
	C668.660339,471.679199 671.776489,471.626526 674.890442,471.688416 
	C687.465820,471.938232 696.193542,482.677643 693.902344,495.043762 
	C691.230652,509.463318 680.775146,518.983582 664.333679,521.149536 
	C658.339600,521.939209 654.705200,523.668030 652.652954,530.135315 
	C648.817993,542.220093 642.634338,553.352051 635.182129,564.114624 
M519.515686,315.255249 
	C507.428467,314.028809 495.303070,313.449951 483.167908,312.930603 
	C460.736816,311.970642 438.297913,310.227600 415.979950,314.329010 
	C406.689270,316.036407 397.541504,318.252228 388.243286,322.354584 
	C391.508240,328.794373 394.542389,334.846588 397.647980,340.861908 
	C398.545563,342.600525 400.198212,342.072815 401.659729,341.864258 
	C406.759644,341.136475 411.863678,340.432190 416.951569,339.626953 
	C425.471802,338.278442 433.980835,336.859161 442.494568,335.469696 
	C439.939423,333.738342 438.061157,331.831421 435.316101,331.202271 
	C432.133820,330.472931 427.030762,330.671722 427.155334,326.375732 
	C427.275482,322.233612 432.240906,322.252747 435.542786,321.726074 
	C461.844421,317.530762 488.287994,318.071014 514.712585,320.023560 
	C520.591614,320.458008 526.710205,320.717468 532.255066,323.366852 
	C533.754761,324.083405 535.444702,324.759308 535.278931,326.861053 
	C535.136780,328.662903 533.631775,329.384460 532.210876,329.761047 
	C526.125122,331.374023 520.057251,333.821045 513.880737,334.173431 
	C498.603546,335.045044 483.267883,334.843933 467.960815,335.261230 
	C461.744049,335.430725 455.540558,336.086395 449.182831,336.531219 
	C452.056946,343.651886 452.889038,350.548920 453.286743,357.496429 
	C453.534485,361.824585 451.106201,364.306061 446.990417,365.204193 
	C445.043915,365.628876 443.076813,365.971527 441.107788,366.279205 
	C403.202484,372.201599 365.295258,378.111328 327.389771,384.032471 
	C325.214417,384.372284 323.097046,384.440887 321.032959,383.461517 
	C314.679230,380.446777 311.883087,381.238190 308.202393,387.195221 
	C288.042511,419.822937 279.898499,455.153961 285.192169,493.219910 
	C291.908630,541.516724 315.944275,579.314087 356.540710,606.021484 
	C364.877014,611.505737 368.231598,616.793213 367.593689,626.587952 
	C366.939148,636.638428 366.209259,646.912720 368.379791,656.954224 
	C370.569550,667.084717 381.374847,675.192566 391.158722,674.320618 
	C403.476776,673.222839 412.401550,664.463806 412.799103,652.880737 
	C413.010498,646.721497 412.903503,640.552002 412.997589,634.387939 
	C413.042358,631.455139 413.900970,629.992676 417.543793,630.412964 
	C430.275787,631.881958 443.092651,632.583557 455.902924,632.609863 
	C475.886993,632.650879 495.900146,633.576172 515.845520,631.711792 
	C521.012024,631.228882 522.302063,633.415344 521.954468,637.965332 
	C521.510681,643.771973 521.373352,649.574097 522.142273,655.398682 
	C523.524170,665.867432 532.420471,674.452881 542.450134,674.721985 
	C555.217041,675.064636 564.877563,667.857544 566.777344,656.502075 
	C568.605774,645.573425 567.486023,634.552307 567.521057,623.580322 
	C567.535278,619.133728 568.917969,616.759827 572.900940,614.701965 
	C605.211670,598.007996 629.221008,573.125000 645.049805,540.400513 
	C647.703308,534.914490 650.384033,529.372437 651.632507,523.125549 
	C650.651184,522.816345 650.023743,522.414917 649.437683,522.468262 
	C646.420105,522.742920 644.738037,521.890686 644.780090,518.412231 
	C644.825623,514.635620 647.218567,514.557739 649.841125,514.676208 
	C653.529724,514.842773 655.100647,512.978210 655.922668,509.511536 
	C657.537537,502.701294 658.593445,495.809784 659.579102,488.900421 
	C659.785034,487.457184 659.609009,485.959412 659.609009,484.758301 
	C658.039551,483.515839 656.212769,485.150818 654.988403,483.298370 
	C655.379211,480.396393 655.898865,477.293610 656.198547,474.169739 
	C657.084351,464.936615 660.023621,455.795532 658.359192,446.440887 
	C652.032837,410.885498 636.065491,380.421631 609.626404,355.654358 
	C607.309509,353.483917 606.605957,351.209290 606.619507,348.188110 
	C606.711365,327.692017 606.698242,307.195282 606.633179,286.699005 
	C606.626831,284.694183 607.518860,282.301270 604.929810,280.631836 
	C599.988953,282.743713 597.638306,288.448792 592.611877,290.604034 
	C591.231873,288.554352 591.858337,286.662598 591.619263,284.892731 
	C591.369080,283.040344 592.526428,280.485626 589.998352,279.653412 
	C587.950012,278.979187 586.809753,281.102142 585.563232,282.336243 
	C574.431885,293.356537 563.241272,304.320892 552.322937,315.549530 
	C549.531982,318.419800 546.960266,319.200989 543.130859,318.293915 
	C535.693359,316.532257 528.073181,315.787170 519.515686,315.255249 
M501.517426,293.984375 
	C529.764709,280.015076 544.740601,251.315491 539.545166,221.108566 
	C533.390198,185.322586 498.614624,160.736908 462.218201,166.439865 
	C424.592621,172.335403 398.822205,210.645218 407.337646,247.876801 
	C408.134888,251.362534 409.649963,252.741364 413.380249,252.846710 
	C420.254120,253.040802 422.432220,255.771072 422.201538,262.681763 
	C422.151703,264.174774 422.143127,265.714203 421.773224,267.143677 
	C420.169830,273.339233 422.238037,277.941711 427.027740,282.075958 
	C449.194794,301.209442 473.732788,305.341278 501.517426,293.984375 
M521.658264,664.601562 
	C518.408875,659.354126 518.639526,653.510803 518.659851,647.668091 
	C518.707397,633.998901 518.698547,634.383911 504.980255,635.473938 
	C486.395020,636.950745 467.761078,636.443359 449.137726,635.651184 
	C438.415527,635.195190 427.681854,634.944641 416.147095,633.850159 
	C416.147095,641.721436 416.679596,648.882874 416.001465,655.927734 
	C415.283722,663.384155 410.565674,669.095764 403.955933,674.505737 
	C446.804443,674.505737 488.049377,674.505737 530.000244,674.505737 
	C526.528503,671.391296 523.857117,668.669067 521.658264,664.601562 
M659.745850,506.908386 
	C659.550842,508.976807 658.199463,510.933746 659.206055,513.643799 
	C666.804688,513.018738 673.862427,511.060638 679.577820,505.771759 
	C684.234802,501.462433 686.356628,495.964935 685.736755,489.570251 
	C685.284485,484.904541 682.457520,482.107666 678.253418,480.483948 
	C673.405212,478.611481 668.765869,479.387054 664.357056,481.783600 
	C663.069031,482.483704 663.317810,484.133362 663.120911,485.430084 
	C662.073975,492.325256 661.031921,499.221161 659.745850,506.908386 
M378.912262,243.379028 
	C377.271942,243.957047 375.631622,244.535049 373.991302,245.113068 
	C375.950256,245.763672 377.763885,245.656998 379.560547,245.786102 
	C383.187653,246.046753 387.273407,245.720932 389.844269,248.675705 
	C394.254120,253.743973 399.287476,251.303802 404.678436,251.383240 
	C403.454315,244.956635 402.440186,239.312592 402.581635,233.023987 
	C395.903961,239.702423 387.081909,239.823456 378.912262,243.379028 
z"/>
<path fill="#000000" opacity="1.000000" stroke="none" 
	d="
M214.354004,148.256210 
	C212.566620,139.056702 214.311142,130.563019 218.950912,123.373962 
	C232.599701,102.225983 251.094620,86.818420 276.086212,81.264664 
	C288.256866,78.560043 300.032867,81.242027 308.960815,91.159706 
	C316.707764,99.765465 318.019897,110.791290 311.928802,120.611374 
	C309.532196,124.475204 311.634735,126.294098 313.650482,128.745972 
	C335.809906,155.699875 326.126923,195.936218 294.266022,209.397400 
	C264.288452,222.062866 230.051071,203.906021 223.809189,171.920273 
	C223.028259,167.918533 221.865097,164.379608 219.261292,161.104584 
	C216.447479,157.565445 214.910583,153.267868 214.354004,148.256210 
M274.482788,110.626144 
	C284.451294,110.353226 293.636047,113.080696 301.853668,118.556015 
	C305.784668,121.175209 307.697998,119.986664 309.556274,116.366577 
	C312.544617,110.545135 312.294922,104.858719 309.346436,99.148903 
	C303.568390,87.959625 290.789978,83.473587 279.789703,84.702049 
	C265.606628,86.285957 254.237549,93.808311 243.464951,102.380096 
	C234.287735,109.682449 225.665054,117.607552 220.960663,128.694977 
	C216.884949,138.300766 216.598267,147.928360 222.497375,158.580246 
	C224.529648,144.524887 229.383133,133.096741 239.094009,124.226334 
	C248.817947,115.344025 260.188019,110.461464 274.482788,110.626144 
z"/>
<path fill="#000000" opacity="1.000000" stroke="none" 
	d="
M589.032959,416.808777 
	C587.834351,411.574646 589.763855,409.757324 594.640991,409.881958 
	C603.609131,410.111115 612.587585,409.923309 621.561768,409.932159 
	C624.426575,409.934967 627.281982,409.645691 627.352051,414.045837 
	C627.420593,418.350037 624.844421,418.348724 621.814026,418.332916 
	C612.507690,418.284332 603.200867,418.332672 593.894409,418.291809 
	C592.279907,418.284729 590.526306,418.643921 589.032959,416.808777 
z"/>
<path fill="#000000" opacity="1.000000" stroke="none" 
	d="
M485.497375,257.680237 
	C481.554749,259.436188 477.542511,260.364990 477.985992,265.909882 
	C478.214478,268.766907 475.319916,268.240234 473.416931,268.314453 
	C471.462463,268.390717 469.418884,268.080627 469.738037,265.495300 
	C470.273865,261.154205 467.525391,260.264893 464.240936,259.445160 
	C461.677521,258.805389 459.162567,257.866608 456.735992,256.808655 
	C453.315216,255.317307 452.663574,253.019699 454.528595,249.588348 
	C455.908508,247.049530 457.203522,246.656967 459.616028,248.047241 
	C462.459808,249.686020 465.348969,251.453766 469.066315,250.806213 
	C470.336975,247.202621 469.717377,243.540115 469.657318,239.933533 
	C469.615875,237.447006 467.664886,236.856659 465.693726,236.127914 
	C457.031616,232.925552 453.697357,228.961533 453.679443,222.141190 
	C453.660431,214.909622 457.476624,209.814606 465.647888,206.787125 
	C468.369385,205.778793 469.964447,204.457291 469.670807,201.427185 
	C469.394653,198.577118 470.839111,197.606430 473.534729,197.668152 
	C476.057983,197.725906 478.477814,197.828339 478.161163,201.235580 
	C477.819214,204.914444 479.856628,206.279602 482.986664,206.902466 
	C483.958160,207.095795 484.896576,207.484039 485.829773,207.836853 
	C493.042999,210.564056 493.580170,212.678009 488.592682,218.995026 
	C485.989227,218.916840 484.354370,216.571075 481.941223,215.954865 
	C480.653687,215.626099 479.362976,214.908524 478.161713,215.931244 
	C475.481720,218.212952 477.804474,229.158173 481.218353,230.515137 
	C490.886261,234.357956 493.632874,237.703583 493.298645,245.303696 
	C493.059692,250.736832 490.515381,254.776886 485.497375,257.680237 
M480.824524,249.124268 
	C483.945404,244.100922 483.102509,241.867691 477.778717,241.230576 
	C476.966980,243.467270 477.395782,245.793793 477.379517,248.078125 
	C477.363251,250.361725 478.591339,250.500107 480.824524,249.124268 
M464.458984,220.775986 
	C464.384888,223.851700 465.838623,225.567932 469.180481,226.174133 
	C469.706757,222.633865 470.922882,219.396118 468.152435,216.610199 
	C465.939056,217.070831 465.258911,218.565353 464.458984,220.775986 
z"/>
</svg>